<svg width="12" height="9" viewBox="0 0 12 9" fill="none" xmlns="http://www.w3.org/2000/svg">
<path fill-rule="evenodd" clip-rule="evenodd" d="M7.01869 1.07424C7.05997 1.03285 7.10902 1.00001 7.16301 0.977603C7.21701 0.955198 7.27489 0.943665 7.33335 0.943665C7.39181 0.943665 7.4497 0.955198 7.5037 0.977603C7.55769 1.00001 7.60674 1.03285 7.64802 1.07424L11.0729 4.50001L7.64802 7.92579C7.6067 7.96711 7.55764 7.99989 7.50365 8.02226C7.44966 8.04462 7.39179 8.05613 7.33335 8.05613C7.27491 8.05613 7.21705 8.04462 7.16306 8.02226C7.10907 7.99989 7.06001 7.96711 7.01869 7.92579C6.97736 7.88447 6.94459 7.83541 6.92222 7.78142C6.89986 7.72743 6.88835 7.66956 6.88835 7.61113C6.88835 7.55269 6.89986 7.49482 6.92222 7.44083C6.94459 7.38684 6.97736 7.33778 7.01869 7.29646L9.37158 4.94446H1.11113C0.993257 4.94446 0.880211 4.89763 0.796862 4.81428C0.713512 4.73093 0.666687 4.61789 0.666687 4.50001C0.666687 4.38214 0.713512 4.26909 0.796862 4.18575C0.880211 4.1024 0.993257 4.05557 1.11113 4.05557H9.37158L7.01869 1.70357C6.9773 1.66229 6.94446 1.61324 6.92205 1.55924C6.89965 1.50525 6.88811 1.44736 6.88811 1.3889C6.88811 1.33044 6.89965 1.27256 6.92205 1.21856C6.94446 1.16457 6.9773 1.11552 7.01869 1.07424Z" fill="white"/>
</svg>
