<svg width="22" height="23" viewBox="0 0 22 23" fill="none" xmlns="http://www.w3.org/2000/svg">
<g clip-path="url(#clip0_1_66)">
<path fill-rule="evenodd" clip-rule="evenodd" d="M16.7391 3.58575C16.7391 3.2988 16.3929 3.15532 16.1901 3.35906C13.8026 5.74462 11.4429 7.19567 7.88175 7.19567H3.34784C3.09415 7.19567 2.85086 7.29644 2.67147 7.47583C2.49209 7.65521 2.39131 7.8985 2.39131 8.15219V11.9783C2.39131 12.232 2.49209 12.4753 2.67147 12.6546C2.85086 12.834 3.09415 12.9348 3.34784 12.9348H7.88271C7.97199 12.9348 8.06127 12.9358 8.15053 12.9377C11.5663 13.0085 13.8686 14.4509 16.1901 16.7724C16.235 16.8175 16.2924 16.8482 16.3548 16.8607C16.4173 16.8731 16.482 16.8668 16.5408 16.8424C16.5997 16.818 16.6499 16.7767 16.6852 16.7237C16.7205 16.6707 16.7393 16.6084 16.7391 16.5447V3.58575ZM18.6522 7.19567V3.58575C18.6522 1.59523 16.2446 0.597581 14.8366 2.00558C12.6691 4.17497 10.7657 5.28262 7.88366 5.28262H3.34784C2.58678 5.28262 1.8569 5.58495 1.31875 6.1231C0.7806 6.66125 0.478271 7.39113 0.478271 8.15219L0.478271 11.9783C0.478271 12.7393 0.7806 13.4692 1.31875 14.0074C1.8569 14.5455 2.58678 14.8478 3.34784 14.8478H3.55827L4.93758 20.3698C5.0272 20.7282 5.18652 21.0653 5.40644 21.362C5.62636 21.6588 5.90258 21.9093 6.21931 22.0993C6.53605 22.2893 6.88711 22.415 7.25244 22.4693C7.61777 22.5236 7.99022 22.5055 8.34853 22.4158C8.70684 22.3262 9.04399 22.1669 9.34072 21.947C9.63746 21.7271 9.88798 21.4508 10.078 21.1341C10.268 20.8174 10.3937 20.4663 10.448 20.101C10.5023 19.7356 10.4842 19.3632 10.3945 19.0049L9.38349 14.9598C11.4706 15.2907 13.0642 16.3515 14.8366 18.1249C16.2446 19.5329 18.6522 18.5362 18.6522 16.5447V12.9348C19.4132 12.9348 20.1431 12.6325 20.6813 12.0943C21.2194 11.5562 21.5217 10.8263 21.5217 10.0652C21.5217 9.30418 21.2194 8.57429 20.6813 8.03614C20.1431 7.498 19.4132 7.19567 18.6522 7.19567ZM18.6522 9.10871V11.0218C18.9059 11.0218 19.1492 10.921 19.3285 10.7416C19.5079 10.5622 19.6087 10.3189 19.6087 10.0652C19.6087 9.81155 19.5079 9.56825 19.3285 9.38887C19.1492 9.20949 18.9059 9.10871 18.6522 9.10871ZM7.3834 14.8478H5.52871L6.79323 19.9059C6.85107 20.1373 6.99845 20.3362 7.20294 20.4589C7.40744 20.5816 7.6523 20.618 7.88366 20.5602C8.11502 20.5023 8.31393 20.355 8.43663 20.1505C8.55933 19.946 8.59576 19.7011 8.53792 19.4698L7.3834 14.8478Z" fill="white"/>
</g>
<defs>
<clipPath id="clip0_1_66">
<rect width="22" height="22" fill="white" transform="translate(0 0.5)"/>
</clipPath>
</defs>
</svg>
