<svg width="24" height="21" viewBox="0 0 24 21" fill="none" xmlns="http://www.w3.org/2000/svg">
<g clip-path="url(#clip0_1_61)">
<path fill-rule="evenodd" clip-rule="evenodd" d="M14.457 2.54101C14.2101 2.47039 13.946 2.49178 13.7137 2.60121C13.4814 2.71065 13.2967 2.90068 13.194 3.13601L11.418 7.19601C11.089 7.92006 10.6282 8.57657 10.059 9.13201C9.72769 9.46121 9.35765 9.74898 8.957 9.98901C8.985 10.156 9 10.326 9 10.5V17.22C10.966 17.72 12.465 17.997 13.875 18.074C15.455 18.161 16.968 17.996 18.939 17.553C19.3019 17.4669 19.6322 17.2775 19.8898 17.0078C20.1475 16.738 20.3215 16.3995 20.391 16.033L21.541 10.281C21.57 10.136 21.5664 9.98634 21.5306 9.84285C21.4948 9.69936 21.4276 9.56561 21.3339 9.45121C21.2402 9.33682 21.1222 9.24464 20.9886 9.18132C20.8549 9.11799 20.7089 9.0851 20.561 9.08501H16.681C16.3905 9.08505 16.1035 9.0218 15.8399 8.89966C15.5763 8.77753 15.3425 8.59944 15.1547 8.37778C14.967 8.15612 14.8297 7.89622 14.7526 7.61615C14.6754 7.33607 14.6602 7.04256 14.708 6.75601L15.211 3.73501C15.254 3.47812 15.2008 3.2144 15.0618 2.99417C14.9227 2.77395 14.7074 2.61263 14.457 2.54101ZM8.5 19.157C10.526 19.672 12.17 19.984 13.764 20.072C15.581 20.171 17.284 19.975 19.377 19.504C20.907 19.159 22.05 17.929 22.351 16.424L23.501 10.674C23.5883 10.2386 23.5779 9.7893 23.4705 9.35844C23.3631 8.92757 23.1614 8.52592 22.88 8.18247C22.5985 7.83902 22.2443 7.56233 21.8429 7.37237C21.4416 7.18242 21.003 7.08393 20.559 7.08401H16.679L17.183 4.06401C17.3061 3.3278 17.1558 2.57099 16.7604 1.93785C16.3651 1.30472 15.752 0.837909 15.0365 0.625297C14.321 0.412685 13.5524 0.468931 12.8755 0.783449C12.1986 1.09797 11.6599 1.64906 11.361 2.33301L9.585 6.39301C9.23428 7.14931 8.67683 7.791 7.977 8.24401C7.43047 7.76374 6.72757 7.49922 6 7.50001H3C2.20435 7.50001 1.44129 7.81608 0.87868 8.37869C0.31607 8.9413 0 9.70436 0 10.5L0 17.5C0 18.2957 0.31607 19.0587 0.87868 19.6213C1.44129 20.1839 2.20435 20.5 3 20.5H6C6.49525 20.5002 6.98282 20.3777 7.4191 20.1433C7.85538 19.9089 8.22676 19.5701 8.5 19.157ZM3 9.50001C2.73478 9.50001 2.48043 9.60537 2.29289 9.79291C2.10536 9.98044 2 10.2348 2 10.5V17.5C2 17.7652 2.10536 18.0196 2.29289 18.2071C2.48043 18.3947 2.73478 18.5 3 18.5H6C6.26522 18.5 6.51957 18.3947 6.70711 18.2071C6.89464 18.0196 7 17.7652 7 17.5V10.5C7.00013 10.3687 6.97436 10.2386 6.92415 10.1172C6.87394 9.99579 6.80029 9.8855 6.7074 9.79261C6.61452 9.69973 6.50422 9.62607 6.38284 9.57587C6.26145 9.52566 6.13136 9.49988 6 9.50001H3Z" fill="#865C4A"/>
</g>
<defs>
<clipPath id="clip0_1_61">
<rect width="24" height="20.0015" fill="white" transform="translate(0 0.498535)"/>
</clipPath>
</defs>
</svg>
