<svg width="51" height="56" viewBox="0 0 51 56" fill="none" xmlns="http://www.w3.org/2000/svg">
<path fill-rule="evenodd" clip-rule="evenodd" d="M38.4602 1.43101C29.9246 -0.477004 21.0729 -0.477004 12.5372 1.43101L11.6175 1.63449C9.21655 2.17129 7.01138 3.36319 5.24698 5.07777C3.48259 6.79235 2.22806 8.96249 1.62274 11.3471C-0.540912 19.8729 -0.540912 28.804 1.62274 37.3298C2.2 39.604 3.36831 41.6852 5.00922 43.3623C6.65014 45.0394 8.70531 46.2529 10.9664 46.8796L12.228 54.411C12.2682 54.6502 12.3719 54.8741 12.5281 55.0596C12.6843 55.2451 12.8874 55.3853 13.1163 55.4657C13.3451 55.546 13.5913 55.5635 13.8292 55.5164C14.0671 55.4693 14.288 55.3593 14.4689 55.1978L21.8782 48.5699C27.4401 48.9093 33.0222 48.4645 38.4602 47.2486L39.3826 47.0451C41.7836 46.5083 43.9888 45.3164 45.7532 43.6019C47.5176 41.8873 48.7721 39.7171 49.3774 37.3325C51.5409 28.8067 51.5409 19.8756 49.3774 11.3498C48.7719 8.96486 47.517 6.79448 45.7521 5.07987C43.9872 3.36525 41.7814 2.17356 39.3799 1.6372L38.4602 1.43101ZM14.827 11.1274C14.3228 11.054 13.8087 11.1555 13.3701 11.415H13.3322C12.3148 12.0118 11.3978 12.7633 10.6164 13.6478C9.96529 14.3993 9.6126 15.1589 9.52036 15.8914C9.4661 16.3255 9.50408 16.765 9.63159 17.1801L9.68043 17.2073C10.4129 19.3587 11.3679 21.4287 12.5345 23.3767C14.0388 26.1127 15.8899 28.6432 18.042 30.9053L18.1071 30.9976L18.2102 31.0735L18.2726 31.1468L18.3485 31.2119C20.6186 33.3705 23.155 35.2304 25.8962 36.7465C29.0297 38.453 30.9316 39.2587 32.0737 39.5952V39.6114C32.4075 39.7145 32.7113 39.7607 33.0179 39.7607C33.9906 39.6888 34.9113 39.2934 35.6332 38.6375C36.515 37.8561 37.2611 36.9364 37.8416 35.9136V35.8946C38.387 34.8636 38.2025 33.8924 37.4157 33.2331C35.8353 31.8523 34.1265 30.6258 32.3125 29.5705C31.0971 28.9113 29.8626 29.3101 29.3634 29.9775L28.2972 31.3231C27.7492 31.9905 26.7562 31.8983 26.7562 31.8983L26.7291 31.9146C19.3198 30.0236 17.342 22.5221 17.342 22.5221C17.342 22.5221 17.2498 21.502 17.9362 20.9811L19.271 19.9067C19.9112 19.3858 20.3562 18.1541 19.6698 16.9387C18.6215 15.123 17.3975 13.4147 16.0153 11.8382C15.7139 11.4672 15.2911 11.2145 14.8216 11.1247L14.827 11.1274ZM27.3449 7.86631C26.9852 7.86631 26.6401 8.00923 26.3857 8.26363C26.1313 8.51802 25.9884 8.86306 25.9884 9.22283C25.9884 9.58259 26.1313 9.92763 26.3857 10.182C26.6401 10.4364 26.9852 10.5793 27.3449 10.5793C30.7769 10.5793 33.6256 11.6998 35.8801 13.8485C37.0386 15.0233 37.942 16.4151 38.5335 17.9398C39.1276 19.4672 39.3989 21.0977 39.3284 22.731C39.3209 22.9091 39.3486 23.087 39.4098 23.2544C39.4711 23.4219 39.5647 23.5756 39.6854 23.7069C39.9291 23.972 40.2682 24.1294 40.6279 24.1445C40.9877 24.1596 41.3387 24.0312 41.6038 23.7874C41.8689 23.5437 42.0263 23.2047 42.0414 22.8449C42.1256 20.8359 41.7921 18.8312 41.062 16.9577C40.3288 15.0752 39.217 13.3632 37.7955 11.9277L37.7684 11.9006C34.9713 9.22825 31.4308 7.86631 27.3449 7.86631ZM27.2527 12.3265C26.8929 12.3265 26.5479 12.4694 26.2935 12.7238C26.0391 12.9782 25.8962 13.3233 25.8962 13.683C25.8962 14.0428 26.0391 14.3878 26.2935 14.6422C26.5479 14.8966 26.8929 15.0396 27.2527 15.0396H27.2988C29.7731 15.2159 31.5746 16.0407 32.8361 17.3945C34.1302 18.789 34.8003 20.5226 34.7488 22.6659C34.7405 23.0256 34.8755 23.374 35.124 23.6342C35.3726 23.8945 35.7143 24.0453 36.0741 24.0536C36.4339 24.0619 36.7822 23.9269 37.0424 23.6783C37.3027 23.4298 37.4535 23.088 37.4618 22.7283C37.5269 19.9149 36.6208 17.4867 34.8248 15.5496V15.5442C32.988 13.5745 30.4676 12.5327 27.4345 12.3292L27.3884 12.3238L27.2527 12.3265ZM27.2012 16.8708C27.0196 16.8548 26.8367 16.8756 26.6634 16.9318C26.49 16.988 26.3298 17.0786 26.1922 17.1981C26.0546 17.3177 25.9426 17.4637 25.8627 17.6275C25.7828 17.7913 25.7367 17.9695 25.7272 18.1515C25.7178 18.3335 25.7451 18.5156 25.8075 18.6868C25.8699 18.858 25.9662 19.0149 26.0906 19.1481C26.215 19.2813 26.365 19.388 26.5315 19.4619C26.6981 19.5359 26.8779 19.5755 27.0601 19.5784C28.1941 19.6381 28.9185 19.98 29.3743 20.4385C29.8328 20.8997 30.1746 21.6403 30.237 22.7988C30.2404 22.9809 30.2804 23.1604 30.3546 23.3266C30.4289 23.4929 30.5358 23.6425 30.6691 23.7665C30.8024 23.8906 30.9592 23.9865 31.1304 24.0487C31.3015 24.1108 31.4834 24.1378 31.6652 24.1282C31.8471 24.1185 32.0251 24.0724 32.1887 23.9925C32.3523 23.9126 32.4981 23.8005 32.6175 23.6631C32.7369 23.5256 32.8274 23.3655 32.8836 23.1923C32.9398 23.0191 32.9605 22.8364 32.9446 22.655C32.8578 21.0272 32.3478 19.5893 31.3032 18.5312C30.2533 17.4731 28.8235 16.9577 27.2012 16.8708Z" fill="#BE2626"/>
</svg>
