<svg width="51" height="52" viewBox="0 0 51 52" fill="none" xmlns="http://www.w3.org/2000/svg">
<path d="M25.5 0.27124C11.424 0.27124 0 11.6952 0 25.7712C0 39.8472 11.424 51.2712 25.5 51.2712C39.576 51.2712 51 39.8472 51 25.7712C51 11.6952 39.576 0.27124 25.5 0.27124ZM37.332 17.6112C36.9495 21.6402 35.292 31.4322 34.4505 35.9457C34.0935 37.8582 33.3795 38.4957 32.7165 38.5722C31.2375 38.6997 30.1155 37.6032 28.6875 36.6597C26.4435 35.1807 25.1685 34.2627 23.001 32.8347C20.4765 31.1772 22.1085 30.2592 23.562 28.7802C23.9445 28.3977 30.4725 22.4562 30.6 21.9207C30.6177 21.8396 30.6154 21.7554 30.5931 21.6754C30.5709 21.5954 30.5295 21.5221 30.4725 21.4617C30.3195 21.3342 30.1155 21.3852 29.937 21.4107C29.7075 21.4617 26.1375 23.8332 19.176 28.5252C18.156 29.2137 17.238 29.5707 16.422 29.5452C15.504 29.5197 13.77 29.0352 12.4695 28.6017C10.863 28.0917 9.6135 27.8112 9.7155 26.9187C9.7665 26.4597 10.404 26.0007 11.6025 25.5162C19.0485 22.2777 23.9955 20.1357 26.469 19.1157C33.558 16.1577 35.0115 15.6477 35.9805 15.6477C36.1845 15.6477 36.669 15.6987 36.975 15.9537C37.23 16.1577 37.3065 16.4382 37.332 16.6422C37.3065 16.7952 37.3575 17.2542 37.332 17.6112Z" fill="#BE2626"/>
</svg>
