<svg width="51" height="52" viewBox="0 0 51 52" fill="none" xmlns="http://www.w3.org/2000/svg">
<path d="M25.5 0.27124C39.5837 0.27124 51 11.6876 51 25.7712C51 39.8549 39.5837 51.2712 25.5 51.2712C20.9936 51.2785 16.5665 50.0859 12.6735 47.816L0.0102359 51.2712L3.45783 38.6028C1.18602 34.7086 -0.00749286 30.2796 3.53946e-05 25.7712C3.53946e-05 11.6876 11.4164 0.27124 25.5 0.27124ZM16.8096 13.7862L16.2996 13.8066C15.9695 13.8267 15.6468 13.9135 15.351 14.0616C15.0744 14.2183 14.8219 14.4141 14.6013 14.643C14.2953 14.9312 14.1219 15.1811 13.9358 15.4233C12.9926 16.6496 12.4848 18.1552 12.4925 19.7022C12.4976 20.9517 12.824 22.1681 13.334 23.3054C14.3769 25.6055 16.0931 28.0407 18.3575 30.2975C18.9032 30.8406 19.4387 31.3863 20.015 31.8938C22.8286 34.371 26.1815 36.1575 29.807 37.1111L31.2554 37.3329C31.7271 37.3584 32.1989 37.3227 32.6732 37.2998C33.4158 37.2614 34.141 37.0603 34.7973 36.7107C35.1312 36.5387 35.4571 36.3515 35.774 36.1497C35.774 36.1497 35.8836 36.0783 36.0927 35.9202C36.437 35.6652 36.6486 35.4842 36.9342 35.1858C37.1459 34.9665 37.3295 34.709 37.4697 34.4157C37.6686 34.0001 37.8675 33.207 37.9491 32.5466C38.0103 32.0417 37.9925 31.7663 37.9848 31.5954C37.9746 31.3226 37.7477 31.0395 37.5003 30.9197L36.0162 30.2541C36.0162 30.2541 33.7977 29.2877 32.4411 28.6706C32.2992 28.6086 32.147 28.5732 31.9923 28.566C31.8178 28.5481 31.6416 28.5677 31.4753 28.6236C31.309 28.6795 31.1567 28.7702 31.0284 28.8899C31.0157 28.8848 30.8448 29.0301 29.0012 31.2639C28.8953 31.4061 28.7496 31.5136 28.5825 31.5726C28.4153 31.6317 28.2344 31.6396 28.0628 31.5954C27.8967 31.5509 27.7339 31.4946 27.5757 31.4271C27.2595 31.2945 27.1499 31.2435 26.9331 31.1517C25.4696 30.5131 24.1146 29.6502 22.9169 28.5941C22.5956 28.3136 22.2972 28.0076 21.9912 27.7118C20.988 26.751 20.1137 25.6641 19.3902 24.4784L19.2398 24.2361C19.1317 24.0733 19.0443 23.8977 18.9797 23.7134C18.8828 23.3385 19.1352 23.0376 19.1352 23.0376C19.1352 23.0376 19.7549 22.3593 20.043 21.9921C20.3235 21.6351 20.5607 21.2883 20.7137 21.041C21.0146 20.5565 21.1089 20.0592 20.9508 19.6742C20.2368 17.93 19.4973 16.1934 18.7374 14.4696C18.587 14.1279 18.1407 13.8831 17.7353 13.8347C17.5976 13.8194 17.4599 13.8041 17.3222 13.7939C16.9797 13.7769 16.6366 13.7803 16.2945 13.8041L16.8071 13.7837L16.8096 13.7862Z" fill="#BE2626"/>
</svg>
